<svg xmlns="http://www.w3.org/2000/svg" xmlns:xlink="http://www.w3.org/1999/xlink" viewBox="0 0 675 467.49"><defs><style>.cls-1,.cls-14,.cls-15,.cls-16,.cls-17{fill:none;}.cls-2{fill:#b12f9c;}.cls-2,.cls-4{opacity:0.17;}.cls-3{clip-path:url(#clip-path);}.cls-4{fill:#1957ac;}.cls-10,.cls-5{fill:#2c2e38;}.cls-6{clip-path:url(#clip-path-2);}.cls-12,.cls-7{fill:#2bb673;}.cls-7{stroke:#2bb673;}.cls-10,.cls-14,.cls-18,.cls-19,.cls-7,.cls-8,.cls-9{stroke-linecap:round;}.cls-10,.cls-14,.cls-17,.cls-18,.cls-19,.cls-7,.cls-8,.cls-9{stroke-linejoin:round;}.cls-10,.cls-18,.cls-19,.cls-7,.cls-8,.cls-9{stroke-width:3px;}.cls-13,.cls-18,.cls-19,.cls-8{fill:#fc0;}.cls-18,.cls-19,.cls-8{stroke:#fc0;}.cls-8{opacity:0.84;}.cls-11,.cls-9{fill:#f33;}.cls-9{stroke:#f33;opacity:0.85;}.cls-10,.cls-14,.cls-15,.cls-16,.cls-17{stroke:#2c2e38;}.cls-10{opacity:0.92;}.cls-15,.cls-16{stroke-miterlimit:10;}.cls-15,.cls-17{stroke-width:2px;}.cls-16{stroke-width:1.5px;}.cls-17{stroke-linecap:square;}.cls-18{opacity:0.25;}</style><clipPath id="clip-path"><path class="cls-1" d="M-16.73,106.06c2.46,0,349.81-85,349.81-85l90.18,308.67L245.18,382.4l22.52,63.66L7,463.22Z"/></clipPath><clipPath id="clip-path-2"><polygon class="cls-1" points="206.96 216.31 254.18 387.4 414.82 339.91 432.26 334.73 439.07 359.25 442.89 371.78 445.88 386.49 561.12 379.14 569.84 199.6 472.49 48.13 180.67 125.97 206.96 216.31"/></clipPath></defs><title>Bitacora_Landing</title><g id="Header"><path class="cls-2" d="M649.59,203.12a41.41,41.41,0,1,1-64.65,50c-.64-1.18-2.25-1.58-2.17.76.19,5.73,12.33,43.14,56.37,37.6,23.8-3,31.69-22.16,32.42-39.23.55-12.82,1.27-37.39-21.1-50.4C648.34,200.63,647.75,201.4,649.59,203.12Z"/><g class="cls-3"><path class="cls-4" d="M175.69,119.85,277.51,91.62C216,72.54,154.76,89.49,112.16,147.88,56.65,238.29,186.12,232,198,299.22c3.25,31.63-13.47,65.06,25.8,89.13,11.1,5.63,14.86,7.14,26,10.58L172.8,125A4.16,4.16,0,0,1,175.69,119.85Z"/></g><path class="cls-5" d="M442.09,383.08l-4-15-2-7.5-2.1-7.47-8.41-29.89-8.43-29.89c-2.94-9.92-5.78-19.87-8.8-29.77l-9-29.73c-1.52-5-3-9.93-4.38-14.9L390.59,204c-5.54-19.95-11.11-39.88-16.43-59.89l-8.06-30-4-15-4.12-15-1-3.74-.26-.93-.1-.33a1.13,1.13,0,0,0-.11-.22,1.45,1.45,0,0,0-.73-.65,1.5,1.5,0,0,0-1-.08l-1.84.5-3.75,1c-5,1.4-10,2.62-14.87,4.46-2.44.86-4.88,1.78-7.33,2.62s-4.94,1.52-7.43,2.23l-14.95,4.2L244.78,110l-59.86,16.54-.91.26a1.19,1.19,0,0,0-.36.17,1.31,1.31,0,0,0-.56,1,1.49,1.49,0,0,0,0,.21l0,.1a1.49,1.49,0,0,0,.05.21l.51,1.87,2,7.5,4.06,15c2.72,10,5.38,20,8.26,29.94q8.58,29.83,17.77,59.51l9,29.71,8.7,29.81c5.58,19.93,11.2,39.86,16.53,59.86l16.13,60,2,7.49,1,3.75a1.47,1.47,0,0,1,0,.17s0,.07,0,.1a1.21,1.21,0,0,0,.09.2,1.81,1.81,0,0,0,.28.34,1.57,1.57,0,0,0,.83.34,2,2,0,0,0,.46-.05l.94-.25,1.87-.5,3.74-1.06c2.49-.7,5-1.46,7.44-2.19l29.78-8.8,119.13-35.17a2.25,2.25,0,0,1,1.28,4.31h-.05l-119.4,34.22-29.85,8.56-7.49,2.05-3.74,1-1.86.55-.93.28a4.93,4.93,0,0,1-1.45.19,4.6,4.6,0,0,1-3.74-2.13,4.84,4.84,0,0,1-.59-1.31l-1.1-3.72-2.21-7.44-17.68-59.54c-5.93-19.84-11.59-39.75-17.27-59.65l-8.21-29.95-7.86-30q-7.77-30.08-16-60c-2.76-10-5.73-19.89-8.65-29.82l-4.39-14.9-2.2-7.44-.55-1.86-.07-.26-.09-.37a4.77,4.77,0,0,1-.07-.76,4.56,4.56,0,0,1,.21-1.51,4.65,4.65,0,0,1,1.75-2.43,4.5,4.5,0,0,1,1.37-.68l1-.29L243.62,106l59.72-17,14.93-4.25c2.49-.7,5-1.43,7.5-2s5.08-1.07,7.62-1.61c5.1-1,10-2.58,15-4L352.12,76l1.89-.54a4.43,4.43,0,0,1,5,2,5,5,0,0,1,.33.65c.08.23.16.47.19.59l.27.93,1.08,3.73,4.33,14.91,4.43,14.89,8.84,29.76c5.95,19.83,11.64,39.74,17.37,59.63l4.14,15c1.39,5,2.77,10,4.07,15l7.93,30c2.61,10,5.4,20,8.1,30l8.47,29.87L437,352.24l2.13,7.47,2.2,7.44L445.76,382a1.91,1.91,0,0,1-3.66,1.08Z"/><g class="cls-6"><path class="cls-7" d="M332.82,303.85h36.9a5.52,5.52,0,0,1,5.52,5.52v59.14a0,0,0,0,1,0,0H327.29a0,0,0,0,1,0,0V309.37A5.52,5.52,0,0,1,332.82,303.85Z"/><path class="cls-8" d="M380.77,253.85h36.9a5.52,5.52,0,0,1,5.52,5.52v99.41a0,0,0,0,1,0,0H375.24a0,0,0,0,1,0,0V259.37A5.52,5.52,0,0,1,380.77,253.85Z"/><path class="cls-9" d="M428.72,273.85h36.9a5.52,5.52,0,0,1,5.52,5.52v104.5a0,0,0,0,1,0,0H423.19a0,0,0,0,1,0,0V279.37A5.52,5.52,0,0,1,428.72,273.85Z"/><path class="cls-10" d="M478.66,193.85h36.9a5.52,5.52,0,0,1,5.52,5.52V358.79a0,0,0,0,1,0,0H473.14a0,0,0,0,1,0,0V199.37A5.52,5.52,0,0,1,478.66,193.85Z"/></g><path class="cls-5" d="M431.45,336.46c-3.57.91-7.09,2-10.61,3s-7,2.2-10.45,3.57-6.87,2.73-10.4,3.77-7.07,2-10.65,2.9l-10.72,2.65c-3.57.89-7.13,1.82-10.67,2.82l-21.22,6.06c-3.55,1-7.16,1.74-10.69,2.75s-7.05,2.13-10.54,3.28c-7,2.36-14,4.42-21.13,6.39-14.19,3.89-28.31,8-42.45,12.08a1.33,1.33,0,0,1-.75-2.55c14.12-4.16,28.25-8.24,42.32-12.57,7-2.14,14.1-4.18,21.26-5.93,3.56-.9,7.12-1.85,10.65-2.89s7-2.34,10.5-3.41l21.16-6.27c3.52-1.05,7-2.17,10.52-3.33l10.47-3.52c3.49-1.19,7-2.23,10.55-3.26s7.16-1.69,10.79-2.4,7.18-1.64,10.74-2.59,7.08-2,10.58-3.13a1.33,1.33,0,1,1,.83,2.52Z"/><path class="cls-5" d="M356.54,383.41a11.55,11.55,0,0,0-6.47-7.76,17.77,17.77,0,0,0-4.9-1.13,14.89,14.89,0,0,0-4.93.28,13.25,13.25,0,0,0-4.6,2,12.32,12.32,0,0,0-3.44,3.78,13.26,13.26,0,0,0-1.24,10,12.91,12.91,0,0,0,2.18,4.73,12,12,0,0,0,4.06,3.3,14.58,14.58,0,0,0,10.09,1.05,13,13,0,0,0,8-6.2A13.33,13.33,0,0,0,356.54,383.41Zm1.59-.45a15,15,0,0,1-1.31,11.42,15.38,15.38,0,0,1-9,7.24,14.52,14.52,0,0,1-5.9.49,14,14,0,0,1-5.55-2,17,17,0,0,1-4.35-3.88,15.38,15.38,0,0,1-2.85-5.11,15.17,15.17,0,0,1,1.29-11.5,16.07,16.07,0,0,1,9-7.63,14.1,14.1,0,0,1,6.09-.59,12.37,12.37,0,0,1,5.62,2.28A17.43,17.43,0,0,1,358.13,383Z"/><circle class="cls-11" cx="55.21" cy="120.87" r="8.72"/><path class="cls-11" d="M64.07,120.87a10.12,10.12,0,0,1-2.48,6.38,8.86,8.86,0,0,1-6.38,3.08,9.59,9.59,0,0,1-6.86-2.61,9.8,9.8,0,0,1-3.06-6.85,10.22,10.22,0,0,1,2.7-7.22,9.5,9.5,0,0,1,7.22-3,8.87,8.87,0,0,1,6.73,3.48A10.66,10.66,0,0,1,64.07,120.87Zm-.3,0a7.13,7.13,0,0,0-3-5.6,8.83,8.83,0,0,0-5.59-1.62,8.23,8.23,0,0,0-5.12,2.1,7.26,7.26,0,0,0-2.4,5.12,7.64,7.64,0,0,0,2,5.47,7.85,7.85,0,0,0,5.48,2.49,8.52,8.52,0,0,0,5.94-2A7.6,7.6,0,0,0,63.77,120.87Z"/><path class="cls-12" d="M139.12,169.44H91.79a8.72,8.72,0,0,0,0,17.44h47.33a8.72,8.72,0,1,0,0-17.44Z"/><path class="cls-12" d="M139.12,169.59c-12.45-.18-24.9.43-37.36.6l-9.33.11a11.3,11.3,0,0,0-2.16.18,8.07,8.07,0,0,0-2,.71,7.65,7.65,0,0,0,3.48,14.49c12.45-.13,24.91-.52,37.36-.3,3.11.06,6.22.13,9.33.25l.59,0h.51a8.55,8.55,0,0,0,1-.06,7.56,7.56,0,0,0,2-.56,7.72,7.72,0,0,0,3.22-2.59,8.06,8.06,0,0,0,.67-8.28,8.26,8.26,0,0,0-3-3.29A8.51,8.51,0,0,0,139.12,169.59Zm0-.3a9.21,9.21,0,0,1,8,4.52,9.46,9.46,0,0,1,0,9.5,9.78,9.78,0,0,1-6.09,4.52,11.19,11.19,0,0,1-1.31.22l-.65,0-.59,0c-3.11.13-6.22.2-9.33.26-12.45.22-24.91-.17-37.36-.3a9.93,9.93,0,0,1-8.6-5.22,9.8,9.8,0,0,1,.46-10,9.69,9.69,0,0,1,3.84-3.37,10,10,0,0,1,2.44-.81,12.74,12.74,0,0,1,2.5-.15l9.33.11C114.22,168.86,126.67,169.47,139.12,169.29Z"/><path class="cls-13" d="M47.94,292H10.62a8.72,8.72,0,1,0,0,17.43H47.94a8.72,8.72,0,1,0,0-17.43Z"/><path class="cls-13" d="M47.94,292.1c-10.78-.14-21.57.27-32.35.57l-4.05.08-1,0c-.3,0-.61,0-.91.08a7.15,7.15,0,0,0-1.76.47,7.79,7.79,0,0,0-4.66,5.17,7.68,7.68,0,0,0,1.34,6.72,7.51,7.51,0,0,0,6.07,2.91c5.39-.09,10.78-.26,16.17-.29s10.79,0,16.18.16l4,.14,1,0a8.62,8.62,0,0,0,.88,0,6.7,6.7,0,0,0,1.72-.32,7.89,7.89,0,0,0,5-4.89,8.1,8.1,0,0,0-1-7.29A8.35,8.35,0,0,0,47.94,292.1Zm0-.3a9.13,9.13,0,0,1,7.24,3.45A9.39,9.39,0,0,1,57,303.31a9.56,9.56,0,0,1-5.58,6.52,9.83,9.83,0,0,1-2.19.64,11,11,0,0,1-1.14.13l-1,0-4,.14q-8.09.2-16.18.16c-5.39,0-10.78-.21-16.17-.29a10,10,0,0,1-7.87-4.09,9.76,9.76,0,0,1-1.45-8.63,9.65,9.65,0,0,1,6-6.23,8.84,8.84,0,0,1,2.15-.5,10.32,10.32,0,0,1,1.11-.06h1l4.05.08C26.37,291.53,37.16,291.94,47.94,291.8Z"/><circle class="cls-5" cx="116.51" cy="378.32" r="8.72"/><path class="cls-5" d="M125.37,378.32a10.15,10.15,0,0,1-2.48,6.39,8.93,8.93,0,0,1-6.38,3.08,9.64,9.64,0,0,1-6.86-2.62,9.8,9.8,0,0,1-3.06-6.85,10.16,10.16,0,0,1,2.7-7.21,9.5,9.5,0,0,1,7.22-3,8.88,8.88,0,0,1,6.73,3.49A10.64,10.64,0,0,1,125.37,378.32Zm-.3,0a7.19,7.19,0,0,0-3-5.6,8.89,8.89,0,0,0-5.59-1.62,8.18,8.18,0,0,0-5.12,2.11,7.2,7.2,0,0,0-2.4,5.11,7.67,7.67,0,0,0,2,5.48,7.89,7.89,0,0,0,5.48,2.49,8.57,8.57,0,0,0,5.94-2A7.6,7.6,0,0,0,125.07,378.32Z"/><path class="cls-5" d="M594.64,134.64q-10.17-2.12-20.3-4.12c-6.76-1.34-13.53-2.74-20.29-4.05l-20.34-3.86q-10.19-1.94-20.39-4.08a1,1,0,0,1-.77-1.17c4-19.36,8.19-38.69,12.28-58l12-58.1h0a.58.58,0,0,1,.69-.46h0q7.08,1.56,14.16,3l14.17,2.95,28.38,5.72a.58.58,0,0,1,.45.56c0,7,.06,13.9,0,20.85l-.45-.62,19.65,6.15a.64.64,0,0,1,.43.73Zm-.58-.89,19.07-93.9.42.73-19.67-6.12a.65.65,0,0,1-.45-.62c0-7,.09-13.89.14-20.84l.46.56L565.7,7.61,551.51,4.73c-4.72-1-9.46-1.9-14.19-2.82l.7-.46L526.13,59.58c-3.89,19.39-7.68,38.81-11.64,58.18l-.77-1.17q10,2,20,4.24l20.08,4.45c6.71,1.47,13.41,2.85,20.12,4.28S587.37,132.39,594.06,133.75Z"/><path class="cls-5" d="M614.45,44.7l2.34.76h0a.51.51,0,0,1,.34.59c-1.66,7.84-3.22,15.7-4.54,23.62q-1,5.92-2.26,11.81c-.81,3.92-1.68,7.83-2.54,11.75-1.72,7.83-3.48,15.65-5.08,23.5l-2.45,11.78-1.22,5.88-1.29,5.88h0a.52.52,0,0,1-.61.39h0c-6.71-1.51-13.47-2.77-20.22-4.11s-13.49-2.7-20.22-4.1l-40.4-8.41a.53.53,0,0,1-.41-.63l.86-4.16a.52.52,0,0,1,.62-.41.53.53,0,0,1,.42.63l-.85,4.16-.42-.64L557,131.23c6.74,1.37,13.48,2.74,20.2,4.21s13.44,2.95,20.2,4.22l-.61.4,1.13-5.91,1.21-5.89,2.39-11.78c1.63-7.85,3.11-15.73,4.62-23.6.75-3.94,1.5-7.88,2.3-11.8S610,73.23,611,69.33c1.92-7.79,3.59-15.63,5.16-23.49l.35.59-2.36-.71a.54.54,0,0,1-.36-.66.55.55,0,0,1,.67-.36Z"/><path class="cls-5" d="M616.8,49.67c.76.3,1.52.59,2.29.87l.08,0a.8.8,0,0,1,.5,1q-1.51,5.83-2.78,11.71c-.9,3.91-1.65,7.84-2.35,11.79-1.33,7.91-3,15.75-4.59,23.61s-3.25,15.7-5,23.53l-5.09,23.5h0a.45.45,0,0,1-.53.34h0c-6.72-1.46-13.44-2.93-20.19-4.21l-10.13-2c-3.37-.67-6.73-1.4-10.1-2.1-6.72-1.42-13.45-2.85-20.2-4.16s-13.51-2.62-20.27-3.86a.76.76,0,0,1-.61-.84v-.07c.15-1,.27-2.1.41-3.14a1,1,0,1,1,2,.26l0,.14c-.29,1-.59,2-.87,3l-.59-.91c6.7,1.53,13.42,3,20.14,4.46s13.47,2.8,20.21,4.16c3.37.68,6.75,1.33,10.11,2L579.32,141c6.71,1.49,13.46,2.8,20.21,4.11l-.52.35,4.6-23.61c1.51-7.87,3.13-15.72,4.72-23.58s3.2-15.7,5.1-23.5c.92-3.9,1.78-7.81,2.5-11.76s1.46-7.88,2.06-11.85l.59,1c-.79-.21-1.58-.41-2.38-.59a1,1,0,1,1,.46-1.95Z"/><line class="cls-14" x1="594.14" y1="13" x2="613.74" y2="39.98"/><line class="cls-15" x1="543.05" y1="38.28" x2="592.36" y2="48.43"/><line class="cls-15" x1="547.47" y1="16.8" x2="571.42" y2="21.73"/><line class="cls-15" x1="541.74" y1="44.62" x2="591.05" y2="54.77"/><line class="cls-15" x1="540.44" y1="50.96" x2="589.75" y2="61.11"/><line class="cls-15" x1="536.82" y1="68.57" x2="568.81" y2="75.22"/><line class="cls-15" x1="535.51" y1="74.91" x2="567.51" y2="81.56"/><line class="cls-15" x1="534.21" y1="81.25" x2="566.21" y2="87.9"/><line class="cls-15" x1="528.34" y1="109.78" x2="544.54" y2="113.12"/><line class="cls-15" x1="529.42" y1="104.5" x2="545.62" y2="107.83"/><polyline class="cls-16" points="572.74 75.73 586.18 78.64 583.41 92.4 570.16 89.49 572.62 79.01"/><path class="cls-17" d="M608.55,237.63l7.49.56h0l-1.4,15.46h0l-6-.44h0l.43-5.8h0l-14.14-1s0,0,0,0l.5-6.76h0l7.15.53h0l.43-5.8h0l-14.14-1s0,0,0,0l.61-8.21s0,0,0,0l26.64,2h0l.54-7.25h0l-17.14-1.28h0l6.73-7.28h0l12,.89"/><path class="cls-17" d="M625.24,212.56l12,.89h0l5.58,8.19h0l-17.14-1.27a0,0,0,0,0,0,0l-.54,7.25h0l26.64,2s0,0,0,0l-.61,8.21h0L637,236.82a0,0,0,0,0,0,0l-.43,5.8h0l7.14.53a0,0,0,0,1,0,0l-.5,6.76h0l-14.14-1h0l-.43,5.79s0,0,0,0l-6-.44h0l.91-15.51h0l7.48.56"/><path class="cls-18" d="M535.33,138.94l70.29,14.71,20.43-91.54s19.78-4.56,27,11.45c8.08,18-21.71,40-25,63.75-2.06,15-11.08,43.77-41,42.13C552.56,177.56,531.25,159.65,535.33,138.94Z"/><path class="cls-19" d="M639.52,72.83l12.55-24.62a2,2,0,0,1,3.62,0l12.55,24.62a2,2,0,0,1-1.81,3h-25.1A2,2,0,0,1,639.52,72.83Z"/></g></svg>